<!-- icon666.com - MILLIONS vector ICONS FREE --><svg version="1.1" id="Capa_1" xmlns="http://www.w3.org/2000/svg" xmlns:xlink="http://www.w3.org/1999/xlink" x="0px" y="0px" viewBox="0 0 512 512" style="enable-background:new 0 0 512 512;" xml:space="preserve"><rect x="199.968" y="369.689" style="fill:#405364;" width="112.064" height="95.45"></rect><path style="fill:#343A4A;" d="M241.863,388.409v-18.722h-41.896v95.455h112.064v-42.67h-36.105 C257.113,422.472,241.863,407.221,241.863,388.409z"></path><path style="fill:#CCCABE;" d="M256.514,247.775c-4.259,0-7.711-3.452-7.711-7.711V44.723c0-4.258,3.451-7.711,7.711-7.711 c4.259,0,7.711,3.452,7.711,7.711v195.341C264.225,244.323,260.772,247.775,256.514,247.775z"></path><path style="fill:#323E4A;" d="M256,273.992c-11.338,0-20.562-9.224-20.562-20.562c0-11.338,9.224-20.562,20.562-20.562 c11.338,0,20.562,9.224,20.562,20.562C276.562,264.768,267.338,273.992,256,273.992z M256,248.289c-2.835,0-5.141,2.306-5.141,5.141 c0,2.835,2.306,5.141,5.141,5.141s5.141-2.306,5.141-5.141C261.14,250.595,258.833,248.289,256,248.289z"></path><g><rect x="352.128" y="46.931" style="fill:#A1C3CE;" width="26.731" height="417.907"></rect><rect x="135.196" y="46.931" style="fill:#A1C3CE;" width="26.731" height="417.907"></rect><path style="fill:#A1C3CE;" d="M352.128,464.833V46.931V464.833z"></path></g><g><rect x="352.128" y="46.931" style="fill:#82B4BF;" width="13.365" height="417.907"></rect><rect x="135.196" y="46.931" style="fill:#82B4BF;" width="13.365" height="417.907"></rect></g><path style="fill:#405364;" d="M95.614,505.92v-40.599c0-7.153,5.799-12.951,12.951-12.951H405.49 c7.153,0,12.951,5.799,12.951,12.951v40.599c0,3.358-2.722,6.08-6.08,6.08H101.694C98.336,512,95.614,509.278,95.614,505.92z"></path><path style="fill:#343A4A;" d="M182.401,482.877c-3.358,0-6.08-2.722-6.08-6.08v-24.427h-67.756 c-7.154,0-12.951,5.799-12.951,12.951v40.599c0,3.358,2.722,6.08,6.08,6.08h310.667c3.358,0,6.08-2.722,6.08-6.08v-23.043H182.401z"></path><path style="fill:#405364;" d="M203.848,318.715l3.986-38.543c0.821-7.92,7.441-13.891,15.401-13.891h65.528 c7.96,0,14.581,5.971,15.4,13.89l3.987,38.544H203.848z"></path><path style="fill:#343A4A;" d="M241.863,266.281h-18.627c-7.96,0-14.581,5.971-15.401,13.891l-3.987,38.543h38.015V266.281z"></path><path id="SVGCleanerId_0" style="fill:#E63B3B;" d="M109.494,371.149v-35.601c0-9.848,8.012-17.86,17.86-17.86h259.348 c9.848,0,17.86,8.012,17.86,17.86v35.601H109.494z"></path><g><path id="SVGCleanerId_0_1_" style="fill:#E63B3B;" d="M109.494,371.149v-35.601c0-9.848,8.012-17.86,17.86-17.86h259.348 c9.848,0,17.86,8.012,17.86,17.86v35.601H109.494z"></path></g><path style="fill:#EF6745;" d="M404.562,335.547c0-9.864-7.997-17.86-17.86-17.86H172.754v9.891c0,8.875,7.194,16.068,16.068,16.068 h215.739V335.547z"></path><path style="fill:#E72D38;" d="M109.494,382.458c-6.236,0-11.309-5.074-11.309-11.309s5.074-11.309,11.309-11.309h293.012 c6.236,0,11.309,5.074,11.309,11.309s-5.074,11.309-11.309,11.309H109.494z"></path><path style="fill:#E01024;" d="M403.534,371.149H110.522c-4.53,0-8.436-2.683-10.239-6.538c-1.316,1.849-2.098,4.101-2.098,6.538 c0,6.236,5.074,11.309,11.309,11.309h293.012c6.236,0,11.309-5.074,11.309-11.309c0-1.706-0.391-3.319-1.07-4.771 C410.693,369.26,407.333,371.149,403.534,371.149z"></path><rect x="135.196" y="22.618" style="fill:#323E4A;" width="243.663" height="35.653"></rect><path style="fill:#405364;" d="M135.196,35.26V19.114C135.196,8.574,143.77,0,154.309,0h205.435c10.54,0,19.115,8.574,19.115,19.114 V35.26C378.859,35.26,135.196,35.26,135.196,35.26z"></path><path style="fill:#343A4A;" d="M211.09,22.618c-8.918,0-16.147-7.229-16.147-16.147l0,0c0-2.274,0.419-4.448,1.153-6.472h-41.787 c-10.556,0-19.113,8.557-19.113,19.114V35.26h243.663V22.618H211.09z"></path><path style="fill:#DCF1F9;" d="M483.212,193.285c-4.258,0-8.261-1.658-11.27-4.67l-52.905-52.905H92.962l-52.907,52.907 c-3.009,3.01-7.012,4.668-11.268,4.668c-4.258,0-8.26-1.658-11.27-4.67c-3.231-3.231-4.92-7.707-4.634-12.279 c0.241-3.865,1.955-7.576,4.829-10.449l57.381-57.381c3.008-3.01,7.011-4.668,11.268-4.668h339.277c4.258,0,8.261,1.658,11.27,4.67 l57.572,57.572c3.01,3.01,4.668,7.012,4.668,11.268c0,4.255-1.657,8.257-4.667,11.267 C491.471,191.628,487.469,193.285,483.212,193.285z"></path><path style="fill:#B6E2F9;" d="M436.907,127.61c-3.009-3.011-7.012-4.67-11.27-4.67H86.36c-4.257,0-8.259,1.657-11.268,4.668 L17.711,184.99c-0.605,0.605-1.146,1.254-1.646,1.927c0.446,0.593,0.919,1.169,1.451,1.699c3.01,3.01,7.013,4.669,11.271,4.669 c4.257,0,8.259-1.657,11.268-4.668l52.907-52.907h326.076l52.905,52.905c3.009,3.011,7.012,4.67,11.27,4.67 c4.257,0,8.259-1.657,11.269-4.669c0.539-0.539,1.018-1.119,1.467-1.717c-0.45-0.598-0.93-1.179-1.469-1.718L436.907,127.61z"></path></svg>